HIERARCHY
ROOT RootJoint
{
    OFFSET   0.000000   0.000000   0.000000
    CHANNELS 6 Xposition Yposition Zposition Xrotation Yrotation Zrotation
    JOINT pelvis_lowerback
    {
        OFFSET   0.000000   0.093605   0.000000
        CHANNELS 3 Xrotation Yrotation Zrotation
        JOINT lowerback_torso
        {
            OFFSET   0.000000   0.100000   0.000000
            CHANNELS 3 Xrotation Yrotation Zrotation
            JOINT torso_head
            {
                OFFSET   0.000000   0.282350   0.000000
                CHANNELS 3 Xrotation Yrotation Zrotation
                End Site
                {
                    OFFSET   0.000000   0.192650   0.000000
                }
            }
            JOINT rTorso_Clavicle
            {
                OFFSET  -0.001000   0.157500   0.000000
                CHANNELS 3 Xrotation Yrotation Zrotation
                JOINT rShoulder
                {
                    OFFSET  -0.117647   0.000000   0.000000
                    CHANNELS 3 Xrotation Yrotation Zrotation
                    JOINT rElbow
                    {
                        OFFSET  -0.245000   0.000000   0.000000
                        CHANNELS 3 Xrotation Yrotation Zrotation
                        JOINT rWrist
                        {
                            OFFSET  -0.240000   0.000000   0.000000
                            CHANNELS 3 Xrotation Yrotation Zrotation
                            End Site
                            {
                                OFFSET  -0.116353  -0.002500   0.000000
                            }
                        }
                    }
                }
            }
            JOINT lTorso_Clavicle
            {
                OFFSET   0.001000   0.157500   0.000000
                CHANNELS 3 Xrotation Yrotation Zrotation
                JOINT lShoulder
                {
                    OFFSET   0.117647   0.000000   0.000000
                    CHANNELS 3 Xrotation Yrotation Zrotation
                    JOINT lElbow
                    {
                        OFFSET   0.245000   0.000000   0.000000
                        CHANNELS 3 Xrotation Yrotation Zrotation
                        JOINT lWrist
                        {
                            OFFSET   0.240000   0.000000   0.000000
                            CHANNELS 3 Xrotation Yrotation Zrotation
                            End Site
                            {
                                OFFSET   0.116353  -0.002500   0.000000
                            }
                        }
                    }
                }
            }
        }
    }
    JOINT rHip
    {
        OFFSET  -0.100000  -0.051395   0.000000
        CHANNELS 3 Xrotation Yrotation Zrotation
        JOINT rKnee
        {
            OFFSET   0.000000  -0.410000   0.000000
            CHANNELS 3 Xrotation Yrotation Zrotation
            JOINT rAnkle
            {
                OFFSET   0.000000  -0.390000   0.000000
                CHANNELS 3 Xrotation Yrotation Zrotation
                JOINT rToeJoint
                {
                    OFFSET   0.000000  -0.050000   0.130000
                    CHANNELS 3 Xrotation Yrotation Zrotation
                    End Site
                    {
                        OFFSET  -0.010000   0.002000   0.060000
                    }
                }
            }
        }
    }
    JOINT lHip
    {
        OFFSET   0.100000  -0.051395   0.000000
        CHANNELS 3 Xrotation Yrotation Zrotation
        JOINT lKnee
        {
            OFFSET   0.000000  -0.410000   0.000000
            CHANNELS 3 Xrotation Yrotation Zrotation
            JOINT lAnkle
            {
                OFFSET   0.000000  -0.390000   0.000000
                CHANNELS 3 Xrotation Yrotation Zrotation
                JOINT lToeJoint
                {
                    OFFSET   0.000000  -0.050000   0.130000
                    CHANNELS 3 Xrotation Yrotation Zrotation
                    End Site
                    {
                        OFFSET   0.010000   0.002000   0.060000
                    }
                }
            }
        }
    }
}
MOTION
Frames: 14
Frame Time:   0.008333
 -2.376719   0.925631   3.975860   0.000000   0.000000   0.000000   0.000000   0.000000   0.000000   0.000000   0.000000   0.000000   0.000000   0.000000   0.000000   0.000000   0.000000   0.000000   0.000000   0.000000   0.000000   0.000000   0.000000   0.000000   0.000000   0.000000   0.000000   0.000000   0.000000   0.000000   0.000000   0.000000   0.000000   0.000000   0.000000   0.000000   0.000000   0.000000   0.000000   0.000000   0.000000   0.000000   0.000000   0.000000   0.000000   0.000000   0.000000   0.000000   0.000000   0.000000   0.000000   0.000000   0.000000   0.000000   0.000000   0.000000   0.000000   0.000000   0.000000   0.000000   0.000000   0.000000   0.000000
 -2.376715   0.926141   3.975570  -0.290159   0.063742  -0.161066   0.477092   0.026173   0.160381  -0.085242  -0.138701   0.072762  -0.162874   0.141324   0.001232   0.148305  -0.268312   0.187021   0.729296   0.401098   2.109209   0.017850   0.859174  -0.007479   0.362448  -0.628120  -2.657290   0.185897   0.209270  -0.375381   1.125809  -0.221144  -2.042679   0.013842  -0.672430   0.008376   0.416539   0.427481   2.526709  -0.035363  -0.169040   0.169169   1.194108  -0.000099  -0.001095  -1.158238  -0.346327  -0.145366   0.005348   0.000006  -0.000021  -0.048606   0.158996   0.198412   0.920016  -0.000281   0.001793  -0.497904   0.219397   0.029328   0.127029  -0.000074   0.000490
 -2.376699   0.927020   3.975333  -0.634343   0.154795  -0.341722   0.937092   0.042899   0.336323  -0.122025  -0.284773   0.168837  -0.310078   0.276522   0.013912   0.294898  -0.444189   1.065232   1.425485   0.902284   4.767650   0.041557   1.709711  -0.013041   0.746262  -0.965868  -4.604618   0.373126   0.320545  -1.447004   2.223324  -0.554590  -4.649285   0.032230  -1.338759   0.014786   0.869645   0.638439   4.315760   0.007405  -0.338705   0.337458   2.470327  -0.000000  -0.001754  -2.240485  -0.672288  -0.288772  -0.041771  -0.000058   0.000150  -0.079246   0.321324   0.434467   1.891470  -0.000595   0.003603  -0.957523   0.429497   0.060318   0.243297  -0.000142   0.000864
 -2.376660   0.927873   3.975162  -0.969866   0.247889  -0.517238   1.353706   0.059470   0.509506  -0.159756  -0.423647   0.269126  -0.450179   0.402804   0.029535   0.433191  -0.546581   2.373209   2.079253   1.479355   7.784975   0.065099   2.521489  -0.016664   1.119189  -1.151385  -5.752778   0.547219   0.358449  -2.936067   3.281873  -0.987143  -7.616471   0.050568  -1.978280   0.019227   1.311717   0.713995   5.307737   0.090039  -0.496663   0.480276   3.697383   0.000271  -0.002124  -3.250088  -0.974102  -0.428552  -0.088353  -0.000117   0.000269  -0.118714   0.475382   0.676089   2.809702  -0.000840   0.004902  -1.386186   0.626083   0.091358   0.346940  -0.000192   0.001095
 -2.376602   0.928421   3.975057  -1.283738   0.329940  -0.683556   1.730862   0.079506   0.676953  -0.206928  -0.551100   0.368777  -0.585901   0.520778   0.045260   0.563332  -0.598891   3.927608   2.688186   2.120484  11.042671   0.085661   3.290236  -0.018850   1.480887  -1.244856  -6.308409   0.706351   0.350334  -4.656806   4.299491  -1.508154 -10.821031   0.066648  -2.586897   0.022164   1.741373   0.698525   5.720312   0.196109  -0.643336   0.597212   4.856121   0.000622  -0.002410  -4.193328  -1.253555  -0.564180  -0.136516  -0.000171   0.000360  -0.171947   0.620004   0.915892   3.662765  -0.001017   0.005663  -1.787268   0.809604   0.122086   0.435320  -0.000223   0.001196
 -2.376531   0.928459   3.975017  -1.574230   0.394772  -0.840419   2.073871   0.103913   0.838036  -0.262030  -0.666041   0.466532  -0.716401   0.630968   0.060360   0.685182  -0.618489   5.605708   3.249877   2.815497  14.459864   0.102066   4.014659  -0.020008   1.830905  -1.279984  -6.463519   0.850136   0.315448  -6.486947   5.273716  -2.107823 -14.180057   0.079515  -3.162632   0.023983   2.157279   0.623006   5.747740   0.318093  -0.779608   0.691515   5.946076   0.000981  -0.002696  -5.074765  -1.512378  -0.695249  -0.185519  -0.000221   0.000430  -0.237571   0.755118   1.151298   4.453490  -0.001140   0.005976  -2.162615   0.980812   0.152285   0.510519  -0.000239   0.001204
 -2.376466   0.927830   3.975044  -1.842217   0.439859  -0.987347   2.387162   0.132426   0.990406  -0.322227  -0.768789   0.557415  -0.840735   0.733847   0.075982   0.798823  -0.617538   7.328621   3.762111   3.555836  17.983857   0.114081   4.694958  -0.020437   2.168266  -1.278749  -6.357517   0.979624   0.266276  -8.361759   6.187298  -2.768194 -17.592989   0.088872  -3.705437   0.024908   2.558360   0.505833   5.506796   0.451438  -0.906212   0.766905   6.970290   0.001293  -0.003000  -5.898427  -1.752155  -0.821490  -0.234330  -0.000262   0.000482  -0.313177   0.880968   1.381179   5.186769  -0.001232   0.005951  -2.513762   1.140465   0.181771   0.574923  -0.000244   0.001154
 -2.376364   0.925854   3.974544  -1.978591   0.538834  -1.055435   2.674023   0.193082   1.104552  -0.374148  -0.871060   0.565332  -1.211971   0.682069   0.016274   0.921695  -0.471656   8.539232   4.418143   4.267888  21.352919   0.122455   5.438909  -0.023686   2.498530  -1.288394  -5.217309   1.101878   0.196377  -9.501194   6.834750  -3.590511 -21.054471   0.097653  -4.351135   0.026150   2.918293   0.330756   4.279557   0.499067  -1.195811   0.784921   7.819643   0.001180  -0.003879  -6.588055  -1.999945  -0.960814   0.032501   0.000234  -0.000637  -0.739532   1.124232   1.488140   6.097409  -0.000845   0.007604  -2.605448   1.268833   0.201144   0.506557  -0.000178   0.000634
 -2.376288   0.922718   3.973867  -2.095641   0.628210  -1.103063   2.981527   0.280473   1.199070  -0.415461  -0.946088   0.552763  -1.569834   0.629793  -0.051706   1.013853  -0.268692   9.517254   4.979464   5.007744  24.393773   0.124293   6.150268  -0.026151   2.835061  -1.213278  -4.115479   1.191641   0.082634 -10.402538   7.381324  -4.423925 -24.177326   0.100767  -4.972721   0.026633   3.269233   0.043176   3.096136   0.570660  -1.471586   0.815536   8.592321   0.000835  -0.004392  -7.231829  -2.230879  -1.094180   0.291032   0.000521  -0.001456  -1.238557   1.360134   1.547637   6.934708  -0.000277   0.008563  -2.686796   1.389663   0.219337   0.468401  -0.000145   0.000354
 -2.376038   0.921551   3.973014  -2.185020   0.535707  -0.658968   3.303207   0.437662   0.900947  -0.453205  -0.951680   0.365317  -1.906459   0.583238  -0.131711   1.070380  -0.011112  10.545426   5.445843   5.775359  27.247928   0.123494   6.830778  -0.027733   3.168218  -1.066427  -3.217102   1.264495  -0.036947 -11.285513   7.845762  -5.232557 -27.046416   0.100731  -5.551742   0.026469   3.603263  -0.237922   2.161039   0.614399  -1.706429   0.405628   9.290816   0.000100  -0.005439  -7.825496  -2.446567  -1.222612   0.588293   0.000631  -0.002563  -1.685509   1.480679   1.083914   7.975916   0.000288   0.007063  -3.257890   1.362703   0.142824   0.200956  -0.000393   0.000287
 -2.375969   0.920637   3.972049  -2.214847   0.418780  -0.352758   3.593907   0.599217   0.778646  -0.492302  -0.934150   0.200044  -2.216689   0.540013  -0.216998   1.101031   0.259352  11.385214   5.835869   6.535170  29.857040   0.119686   7.478997  -0.028506   3.491976  -0.847975  -2.381156   1.326723  -0.155124 -12.066872   8.237898  -6.018509 -29.728501   0.097996  -6.099641   0.025830   3.920578  -0.548461   1.245783   0.644232  -1.935084   0.240344   9.931219  -0.001075  -0.006107  -8.383137  -2.646742  -1.344577   0.844540   0.000427  -0.003254  -2.101529   1.605087   0.776183   8.806101   0.000461   0.005660  -3.695001   1.358472   0.069196  -0.012990  -0.000492   0.000230
 -2.376036   0.919797   3.970987  -2.204161   0.306770  -0.089215   3.871617   0.756565   0.700168  -0.531459  -0.908289   0.063432  -2.504931   0.499700  -0.290065   1.112165   0.526840  12.091289   6.162027   7.269622  32.239467   0.113745   8.090158  -0.028595   3.802890  -0.600341  -1.668085   1.377182  -0.270607 -12.747446   8.568251  -6.770868 -32.202698   0.093251  -6.613713   0.024776   4.220967  -0.866211   0.408809   0.681125  -2.153808   0.192217  10.529438  -0.002325  -0.006360  -8.905581  -2.831165  -1.459453   1.069202   0.000115  -0.003589  -2.521085   1.722386   0.521790   9.537013   0.000484   0.004511  -4.057661   1.358813   0.003150  -0.184148  -0.000507   0.000184
 -2.376204   0.918973   3.969860  -2.163587   0.200853   0.164206   4.138325   0.910545   0.636676  -0.566899  -0.876712  -0.058570  -2.772143   0.462355  -0.355314   1.110005   0.783204  12.690952   6.435234   7.970481  34.421674   0.106491   8.663542  -0.028130   4.099823  -0.346590  -1.070363   1.419168  -0.378442 -13.335064   8.847238  -7.483258 -34.480619   0.087206  -7.093804   0.023403   4.504838  -1.174852  -0.334467   0.734251  -2.360223   0.209897  11.091874  -0.003495  -0.006313  -9.393946  -3.001403  -1.567813   1.271950  -0.000218  -0.003693  -2.945667   1.834658   0.284281  10.200953   0.000442   0.003586  -4.367892   1.361233  -0.054599  -0.321079  -0.000479   0.000146
 -2.376423   0.917840   3.968060  -2.115995   0.307568   0.512927   4.466693   1.006803   0.414993  -0.539135  -0.871701  -0.073075  -2.986966   0.315714  -0.471309   1.071834   1.029916  12.862350   6.637227   8.636144  36.110888   0.095263   9.178775  -0.027728   4.314947   0.031989   0.306020   1.350537  -0.539214 -13.512083   8.845492  -8.265003 -36.424887   0.078314  -7.538308   0.021158   4.756793  -1.466916  -1.685014   0.968372  -2.502549   0.120019  10.927931  -0.002424  -0.005084  -9.333320  -3.044983  -1.703321   1.425192  -0.000319  -0.003033  -3.908159   1.933449  -0.030387  11.760630   0.000800   0.005370  -4.806768   1.173225  -0.098152  -0.779589  -0.000578   0.000117
